<svg width="24" height="24" viewBox="0 0 24 24" fill="none" xmlns="http://www.w3.org/2000/svg">
    <path d="M21.822 7.431C21.73 7.29808 21.607 7.18943 21.464 7.11436C21.321 7.0393 21.162 7.00006 21 7H7.333L6.179 4.23C6.028 3.86523 5.771 3.55359 5.443 3.33462C5.114 3.11564 4.728 2.99918 4.333 3H2V5H4.333L9.077 16.385C9.153 16.5672 9.281 16.7228 9.445 16.8322C9.61 16.9416 9.803 17 10 17H18C18.417 17 18.79 16.741 18.937 16.352L21.937 8.352C21.994 8.20063 22.013 8.03776 21.993 7.87735C21.973 7.71695 21.914 7.56379 21.822 7.431ZM17.307 15H10.667L8.167 9H19.557L17.307 15Z" fill="#000201"/>
    <path d="M10.5 21C11.328 21 12 20.3284 12 19.5C12 18.6716 11.328 18 10.5 18C9.672 18 9 18.6716 9 19.5C9 20.3284 9.672 21 10.5 21Z" fill="#000201"/>
    <path d="M17.5 21C18.328 21 19 20.3284 19 19.5C19 18.6716 18.328 18 17.5 18C16.672 18 16 18.6716 16 19.5C16 20.3284 16.672 21 17.5 21Z" fill="#000201"/>
</svg>